<?xml version="1.0" standalone="no"?><!DOCTYPE svg PUBLIC "-//W3C//DTD SVG 1.1//EN" "http://www.w3.org/Graphics/SVG/1.1/DTD/svg11.dtd"><svg class="icon" width="200px" height="200.00px" viewBox="0 0 1024 1024" version="1.1" xmlns="http://www.w3.org/2000/svg"><path fill="#ffffff" d="M0 575.1184c2.7664 0.9408 4.4256 1.5632 6.1184 2.0704 104.2384 31.2544 208.4944 62.4496 312.68 93.8784 5.8528 1.7648 9.7792 1.1488 14.6736-2.7472 141.7408-112.8048 283.632-225.4224 425.5024-338.0656 1.3264-1.0528 2.6864-2.064 4.0304-3.0944 0.1936 0.2592 0.3856 0.5184 0.5792 0.7776-112.1904 124.2752-224.3808 248.552-337.0832 373.3968 128.3632 42.1296 256.04 84.0352 384.1024 126.0656C881.6672 570.84 952.6416 314.6144 1024 56.9936 682.2496 229.9136 341.624 402.2624 0 575.1184zM412.6608 967.0064c47.6064-56.2496 94.4992-111.656 141.8656-167.6224-47.6768-14.0784-94.6384-27.9472-141.8656-41.8928C412.6608 827.464 412.6608 896.6784 412.6608 967.0064z" /></svg>